<svg width="auto" height="auto" viewBox="12 13 105 108" xmlns="http://www.w3.org/2000/svg" fill="#FFF"><path d="M27.469 13.375c-4.578 0-8.282 3.672-8.282 8.25v5.625H16.25c-1.92 0-3.469 1.518-3.469 3.438v22.937a3.463 3.463 0 0 0 3.469 3.469h2.938v55.719c0 4.578 3.703 8.25 8.28 8.25s8.25-3.672 8.25-8.25v-55.72h2.938a3.463 3.463 0 0 0 3.469-3.468V30.688c0-1.92-1.549-3.438-3.469-3.438H35.72v-5.625a8.22 8.22 0 0 0-8.25-8.25m37.562 0a8.22 8.22 0 0 0-8.25 8.25v48.25h-2.937a3.463 3.463 0 0 0-3.469 3.469V96.28a3.463 3.463 0 0 0 3.469 3.469h2.937v13.063c0 4.578 3.672 8.25 8.25 8.25s8.281-3.672 8.281-8.25V99.75h2.938a3.463 3.463 0 0 0 3.469-3.469V73.344a3.463 3.463 0 0 0-3.469-3.469h-2.937v-48.25c0-4.578-3.704-8.25-8.282-8.25m37.594 0a8.22 8.22 0 0 0-8.25 8.25v19.469h-2.937a3.463 3.463 0 0 0-3.47 3.468V67.5a3.463 3.463 0 0 0 3.47 3.469h2.937v41.844a8.22 8.22 0 0 0 8.25 8.25c4.578 0 8.281-3.672 8.281-8.25V70.969h2.906a3.463 3.463 0 0 0 3.47-3.469V44.563a3.463 3.463 0 0 0-3.47-3.47h-2.906V21.626c0-4.578-3.703-8.25-8.281-8.25"/></svg>